<svg version="1.2" baseProfile="tiny-ps" xmlns="http://www.w3.org/2000/svg" viewBox="0 0 199 44" width="199" height="44">
	<title>Shape 2 copy 9</title>
	<style>
		tspan { white-space:pre }
		.shp0 { fill: #ffffff } 
	</style>
	<path id="Shape 1 copy 2" class="shp0" d="M43.06 0.12L1.94 0.12C1.12 0.12 0.46 0.78 0.46 1.6L0.46 42.39C0.46 43.22 1.12 43.88 1.94 43.88L43.06 43.88C43.88 43.88 44.54 43.22 44.54 42.39L44.54 1.61C44.54 0.79 43.88 0.12 43.06 0.12M34.7 34.2L34.7 34.2L34.7 34.2C31.95 36.95 27.49 36.95 24.74 34.2C23.63 33.1 22.97 31.71 22.76 30.27C22.7 29.9 22.57 27.93 22.47 27.42C22.12 25.56 21.49 24.45 20.77 23.76C20.76 23.76 20.76 23.75 20.75 23.75C20.75 23.74 20.74 23.73 20.74 23.73C20.05 23.01 18.93 22.38 17.08 22.04C16.57 21.94 14.6 21.8 14.23 21.75C12.8 21.53 11.4 20.87 10.29 19.76C7.54 17.01 7.54 12.56 10.29 9.8C10.3 9.8 10.3 9.8 10.3 9.8L10.3 9.8C13.05 7.05 17.51 7.05 20.25 9.8C21.36 10.91 22.25 13.74 22.25 13.74L22.53 16.58L24.22 20.23C24.22 20.23 24.24 20.25 24.25 20.26C24.25 20.26 24.27 20.26 24.27 20.27C24.94 20.99 26.07 21.62 27.92 21.97C28.43 22.06 30.39 22.2 30.77 22.25C32.21 22.47 33.6 23.13 34.7 24.24C37.46 26.99 37.46 31.45 34.7 34.2" />
	<path id="Shape 2 copy 9" class="shp0" d="M97.35 17.19L98.71 17.19L93.91 27.88L92.79 27.88L87.99 17.19L89.4 17.19L93.37 26.34L97.35 17.19ZM111.45 27.81L110.09 27.81L108.78 25L102.71 25L101.38 27.81L100.09 27.81L105.18 17.12L106.36 17.12L111.45 27.81ZM105.75 18.51L103.2 23.92L108.29 23.92L105.75 18.51ZM123.31 17.19L124.54 17.19L124.54 27.81L123.53 27.81L116.33 19.1L116.33 27.81L115.1 27.81L115.1 17.19L116.28 17.19L123.31 25.7L123.31 17.19ZM142.42 27.81L142.42 23.55L137.89 23.55L137.89 27.81L135.43 27.81L135.43 17.19L137.89 17.19L137.89 21.39L142.42 21.39L142.42 17.19L144.88 17.19L144.88 27.81L142.42 27.81ZM157.32 27.81L156.3 25.43L151.58 25.43L150.56 27.81L148.05 27.81L152.84 17.12L155.11 17.12L159.89 27.81L157.32 27.81ZM153.94 19.92L152.46 23.36L155.42 23.36L153.94 19.92ZM167.83 27.99C164.36 27.99 161.97 25.67 161.97 22.53L161.97 22.5C161.97 19.48 164.44 17.01 167.82 17.01C169.83 17.01 171.04 17.53 172.21 18.47L170.66 20.24C169.79 19.56 169.03 19.16 167.74 19.16C165.95 19.16 164.53 20.67 164.53 22.47L164.53 22.5C164.53 24.44 165.94 25.87 167.91 25.87C168.81 25.87 169.61 25.65 170.22 25.23L170.22 23.71L167.75 23.71L167.75 21.7L172.6 21.7L172.6 26.31C171.45 27.23 169.87 27.99 167.83 27.99M176.67 27.81L176.67 17.19L185.1 17.19L185.1 19.27L179.11 19.27L179.11 21.42L184.38 21.42L184.38 23.5L179.11 23.5L179.11 25.73L185.17 25.73L185.17 27.81L176.67 27.81ZM196.92 27.81L191.51 21.06L191.51 27.81L189.09 27.81L189.09 17.19L191.35 17.19L196.58 23.73L196.58 17.19L199.01 17.19L199.01 27.81L196.92 27.81Z" />
</svg>